HIERARCHY
ROOT Hips
{
	OFFSET 0.000000 0.000000 0.000000
	CHANNELS 6 Xposition Yposition Zposition Zrotation Yrotation Xrotation 
	JOINT LowerBack
	{
		OFFSET 0.000000 0.000000 0.000000
		CHANNELS 3 Zrotation Yrotation Xrotation
		JOINT Spine
		{
			OFFSET 0.028270 2.035590 -0.193380
			CHANNELS 3 Zrotation Yrotation Xrotation
			JOINT Spine1
			{
				OFFSET 0.056720 2.048850 -0.042750
				CHANNELS 3 Zrotation Yrotation Xrotation
				JOINT Neck
				{
					OFFSET 0.000000 0.000000 0.000000
					CHANNELS 3 Zrotation Yrotation Xrotation
					JOINT Neck1
					{
						OFFSET -0.054170 1.746240 0.172020
						CHANNELS 3 Zrotation Yrotation Xrotation
						JOINT Head
						{
							OFFSET 0.104070 1.761360 -0.123970
							CHANNELS 3 Zrotation Yrotation Xrotation
							End Site
							{
								OFFSET 0.000000 0.000000 0.000000
							}
						}
					}
				}
				JOINT LeftShoulder
				{
					OFFSET 0.000000 0.000000 0.000000
					CHANNELS 3 Zrotation Yrotation Xrotation
					JOINT LeftArm
					{
						OFFSET 3.362410 1.200890 -0.311210
						CHANNELS 3 Zrotation Yrotation Xrotation
						JOINT LeftForeArm
						{
							OFFSET 4.983000 -0.000000 -0.000000
							CHANNELS 3 Zrotation Yrotation Xrotation
							JOINT LeftHand
							{
								OFFSET 3.483560 -0.000000 -0.000000
								CHANNELS 3 Zrotation Yrotation Xrotation
								JOINT LeftFingerBase
								{
									OFFSET 0.000000 0.000000 0.000000
									CHANNELS 3 Zrotation Yrotation Xrotation
									JOINT LeftHandIndex1
									{
										OFFSET 0.715260 -0.000000 -0.000000
										CHANNELS 3 Zrotation Yrotation Xrotation
										End Site
										{
											OFFSET 0.000000 0.000000 0.000000
										}
									}
								}
								JOINT LThumb
								{
									OFFSET 0.000000 0.000000 0.000000
									CHANNELS 3 Zrotation Yrotation Xrotation
									End Site
									{
										OFFSET 0.000000 0.000000 0.000000
									}
								}
							}
						}
					}
				}
				JOINT RightShoulder
				{
					OFFSET 0.000000 0.000000 0.000000
					CHANNELS 3 Zrotation Yrotation Xrotation
					JOINT RightArm
					{
						OFFSET -3.136600 1.374050 -0.404650
						CHANNELS 3 Zrotation Yrotation Xrotation
						JOINT RightForeArm
						{
							OFFSET -5.241900 -0.000000 -0.000000
							CHANNELS 3 Zrotation Yrotation Xrotation
							JOINT RightHand
							{
								OFFSET -3.444170 -0.000000 -0.000000
								CHANNELS 3 Zrotation Yrotation Xrotation
								JOINT RightFingerBase
								{
									OFFSET 0.000000 0.000000 0.000000
									CHANNELS 3 Zrotation Yrotation Xrotation
									JOINT RightHandIndex1
									{
										OFFSET -0.622530 -0.000000 -0.000000
										CHANNELS 3 Zrotation Yrotation Xrotation
										End Site
										{
											OFFSET 0.000000 0.000000 0.000000
										}
									}
								}
								JOINT RThumb
								{
									OFFSET 0.000000 0.000000 0.000000
									CHANNELS 3 Zrotation Yrotation Xrotation
									End Site
									{
										OFFSET 0.000000 0.000000 0.000000
									}
								}
							}
						}
					}
				}
			}
		}
	}
}
}
MOTION
Frames: 9
Frame Time: 0.008333
3.634897 17.246747 0.735456 8.793527 -83.032270 3.565871 0.409295 3.384946 -4.900406 0.437340 3.495281 -4.417055 1.464106 3.591673 -4.267803 -6.884773 2.953641 0.204413 -1.225940 -0.222964 2.246796 0.000000 0.000000 0.000000 3.547997 -0.253473 -4.148441 -90.884815 -16.252102 26.096765 178.822305 -50.627343 179.920632 3.030501 -8.489407 -0.240810 0.158163 1.090537 -0.000000 0.000000 0.000000 0.000000 0.000000 0.000000 0.000000 -16.302989 9.252897 2.182990 -13.368694 70.162827 -111.610751 -3.864881 4.396415 -0.100089 -15.300984 11.882179 -1.705261 0.230230 -0.569621 -0.000000 0.000000 0.000000 0.000000 0.000000 0.000000 0.000000 
3.627343 17.245900 0.735185 8.232655 -82.829216 4.125917 0.411649 3.337203 -4.900462 0.405441 3.446523 -4.484275 1.309397 3.560838 -4.551377 -6.674065 2.727887 0.365345 -1.254146 -0.228228 2.295874 0.000000 0.000000 0.000000 3.776609 -0.308320 -4.035522 -91.015107 -16.005039 26.153267 178.851724 -50.638024 179.920993 3.002845 -8.499276 -0.238877 0.157686 1.095774 -0.000000 0.000000 0.000000 0.000000 0.000000 0.000000 0.000000 -16.182017 9.110039 1.468274 -8.363698 70.752232 -105.864170 -3.917321 5.686920 -0.099239 -14.574567 11.923838 -1.628788 0.208730 -0.576324 -0.000000 0.000000 0.000000 0.000000 0.000000 0.000000 0.000000 
3.620319 17.245103 0.735395 7.697862 -82.630103 4.684235 0.441471 3.297428 -4.814150 0.346171 3.400330 -4.603022 1.016931 3.547024 -5.111493 -6.348560 2.590737 0.644017 -1.304109 -0.237279 2.380384 0.000000 0.000000 0.000000 4.096822 -0.361806 -3.839724 -91.079494 -15.656885 26.202676 178.928992 -50.651288 179.921691 2.981166 -8.500559 -0.237558 0.153458 1.103012 -0.000000 0.000000 0.000000 0.000000 0.000000 0.000000 0.000000 -16.007896 9.040607 0.278905 0.249670 71.249073 -95.120750 -4.183596 7.842685 -0.099201 -13.713015 11.627188 -1.494453 0.182287 -0.582761 -0.000000 0.000000 0.000000 0.000000 0.000000 0.000000 0.000000 
3.614095 17.244337 0.735983 7.220834 -82.460192 5.244436 0.528300 3.240109 -4.582178 0.260047 3.325949 -4.780399 0.563232 3.516892 -5.996914 -5.962878 2.559690 0.939501 -1.384652 -0.248784 2.471918 0.000000 0.000000 0.000000 4.516724 -0.246433 -3.583712 -91.070966 -15.173378 26.261046 179.045244 -50.604593 179.922731 2.964225 -8.497254 -0.236920 0.145845 1.108751 -0.000000 0.000000 0.000000 0.000000 0.000000 0.000000 0.000000 -15.808239 8.846751 -1.330629 12.371591 71.514444 -79.498193 -4.983653 10.856958 -0.103165 -12.928751 10.927587 -1.326071 0.147806 -0.593090 -0.000000 0.000000 0.000000 0.000000 0.000000 0.000000 0.000000 
3.608573 17.243613 0.736833 6.801997 -82.381485 5.798015 0.679665 3.095015 -4.236904 0.181569 3.152439 -4.969644 0.054937 3.378893 -6.954481 -5.603978 2.645053 1.071638 -1.512758 -0.259576 2.514734 0.000000 0.000000 0.000000 4.970700 0.226102 -3.355135 -90.989714 -14.595797 26.281678 179.136202 -50.407513 179.923649 2.957748 -8.494140 -0.236963 0.139110 1.107293 -0.000000 0.000000 0.000000 0.000000 0.000000 0.000000 0.000000 -15.416132 8.288272 -2.762736 24.831846 71.798405 -62.882466 -6.331176 14.266410 -0.113630 -12.365588 9.913970 -1.154677 0.100862 -0.615586 0.000000 0.000000 0.000000 0.000000 0.000000 0.000000 0.000000 
3.603757 17.242909 0.737851 6.377361 -82.412484 6.299536 0.815143 2.850919 -3.967847 0.150897 2.882496 -5.092666 -0.308235 3.118374 -7.552810 -5.252851 2.835472 1.083849 -1.673498 -0.268641 2.515380 0.000000 0.000000 0.000000 5.349323 0.850089 -3.208233 -90.869119 -14.076550 26.193638 179.145323 -50.131283 179.923837 2.970373 -8.488197 -0.237940 0.137621 1.100540 -0.000000 0.000000 0.000000 0.000000 0.000000 0.000000 0.000000 -14.633898 7.608247 -3.454788 34.252954 72.179912 -49.537376 -7.473142 17.665529 -0.126533 -12.002764 8.806406 -1.001855 0.050955 -0.648183 -0.000000 0.000000 0.000000 0.000000 0.000000 0.000000 0.000000 
3.599673 17.242251 0.738999 5.903622 -82.493630 6.725723 0.866278 2.585705 -3.876828 0.154459 2.603786 -5.138680 -0.500555 2.831063 -7.728034 -4.823521 3.082500 1.171025 -1.833314 -0.277956 2.530838 0.000000 0.000000 0.000000 5.632130 1.287487 -3.105083 -90.742439 -13.717669 26.024429 179.107998 -49.936873 179.923364 3.004347 -8.470913 -0.240084 0.139015 1.096114 -0.000000 0.000000 0.000000 0.000000 0.000000 0.000000 0.000000 -13.544872 7.204682 -3.609765 40.169323 72.133853 -40.172225 -7.892598 21.221002 -0.137216 -11.777431 7.820268 -0.880507 0.010211 -0.681169 -0.000000 0.000000 0.000000 0.000000 0.000000 0.000000 0.000000 
3.596084 17.241615 0.740208 5.395338 -82.583261 7.095074 0.845146 2.344750 -3.912284 0.166197 2.359058 -5.141707 -0.605473 2.571165 -7.662712 -4.310456 3.333046 1.381088 -1.981284 -0.288342 2.578762 0.000000 0.000000 0.000000 5.849601 1.497543 -3.007403 -90.607217 -13.506489 25.828471 179.069382 -49.866202 179.922582 3.057495 -8.439987 -0.243539 0.139896 1.096227 -0.000000 0.000000 0.000000 0.000000 0.000000 0.000000 0.000000 -12.318915 7.090201 -3.587287 43.735768 71.458262 -33.610939 -7.717718 25.191489 -0.145114 -11.633369 7.053549 -0.791593 -0.021126 -0.709827 -0.000000 0.000000 0.000000 0.000000 0.000000 0.000000 0.000000 
3.592835 17.240930 0.741412 4.873054 -82.671474 7.431371 0.783986 2.130902 -4.008039 0.176347 2.146477 -5.123684 -0.679253 2.341639 -7.483995 -3.747962 3.540365 1.664317 -2.122283 -0.299398 2.646918 0.000000 0.000000 0.000000 6.025090 1.575256 -2.907982 -90.456349 -13.411758 25.635753 179.044487 -49.886873 179.921687 3.126312 -8.399251 -0.248146 0.139146 1.099555 -0.000000 0.000000 0.000000 0.000000 0.000000 0.000000 0.000000 -11.036048 7.108061 -3.532096 46.032501 70.318731 -28.762400 -7.193697 29.639837 -0.151089 -11.569853 6.498004 -0.731359 -0.045075 -0.732481 -0.000000 0.000000 0.000000 0.000000 0.000000 0.000000 0.000000 
